<svg xmlns="http://www.w3.org/2000/svg" viewBox="0 0 194 36"><path fill="currentColor" d="M31.964 0c1.313 2.094 1.905 4.252 1.905 6.978 0 8.692-7.682 19.985-13.917 27.915H5.712L0 1.903 12.47.76l3.019 23.474c2.821-4.44 6.304-11.418 6.304-16.175 0-2.605-.462-4.378-1.184-5.839L31.964 0zm16.162 14.529c2.295 0 8.07-1.015 8.07-4.186 0-1.523-1.113-2.282-2.427-2.282-2.298 0-5.314 2.661-5.644 6.468h.001zm-.263 6.28c0 3.873 2.23 5.392 5.184 5.392 3.219 0 6.3-.759 10.305-2.725l-1.509 9.896c-2.821 1.33-7.22 2.22-11.488 2.22-10.828 0-14.703-6.344-14.703-14.273 0-10.279 6.305-21.191 19.3-21.191C62.108.128 66.11 4 66.11 9.39c0 8.694-11.55 11.356-18.246 11.419zm54.231-13.194c0 1.268-.199 3.108-.397 4.311l-3.741 22.84H85.813l3.414-20.936c.065-.569.263-1.712.263-2.346 0-1.523-.985-1.902-2.17-1.902-1.572 0-3.149.696-4.199 1.205l-3.87 23.98H67.038L72.62.572h10.568l.133 2.73C85.813 1.714 89.098 0 93.754 0c6.171 0 8.34 3.046 8.34 7.615zm36.047-3.744c3.478-2.409 6.761-3.743 11.288-3.743 6.235 0 8.403 3.045 8.403 7.616 0 1.268-.198 3.108-.396 4.31l-3.738 22.84h-12.145l3.479-21.379c.063-.571.198-1.268.198-1.711 0-1.715-.985-2.095-2.17-2.095-1.507 0-3.015.635-4.134 1.206l-3.87 23.98h-12.142l3.477-21.38c.064-.571.195-1.268.195-1.71 0-1.715-.986-2.096-2.166-2.096-1.576 0-3.15.697-4.2 1.206l-3.874 23.98H104.14L109.718.7h10.439l.328 2.855c2.429-1.712 5.708-3.426 10.106-3.426 3.808-.001 6.3 1.584 7.55 3.742zm43.853 9.96c0-2.792-.723-4.695-2.887-4.695-4.792 0-5.776 8.183-5.776 12.37 0 3.175.92 5.141 3.084 5.141 4.528 0 5.579-8.63 5.579-12.817v.001zm-21.003 7.17c0-10.784 5.906-20.875 19.495-20.875 10.239 0 13.982 5.838 13.982 13.896 0 10.66-5.842 21.697-19.759 21.697-10.305 0-13.718-6.535-13.718-14.72v.002z"/></svg>
